<svg width="145" height="82" viewBox="0 0 145 82" fill="none" xmlns="http://www.w3.org/2000/svg">
<path d="M75.5703 20.125L78.1484 20.6328C78.5911 20.6328 79.3464 21.0104 80.4141 21.7656H80.5703C80.5964 20.75 80.6875 20.2422 80.8438 20.2422C81.625 20.5286 82.0938 20.6719 82.25 20.6719H83.0312L83.6562 20.6328L83.7344 20.75L83.6953 20.9844V25.9844C83.6953 26.2708 83.6042 26.5052 83.4219 26.6875C83.6302 26.8958 83.7344 27.0911 83.7344 27.2734C83.7344 27.4557 83.6562 27.6771 83.5 27.9375L83.6172 28.6016C83.6172 28.9141 83.5391 29.0703 83.3828 29.0703L82.3672 28.9141H82.3281L81.7812 29.0703H81.7031C81.599 29.0703 81.4297 28.5104 81.1953 27.3906C81.1953 27.026 81.0391 26.7005 80.7266 26.4141C80.388 25.9193 80.2188 25.5807 80.2188 25.3984L80.4531 25.3203V25.2812C80.0625 24.9688 79.8281 24.6172 79.75 24.2266C78.6823 23.1589 77.7708 22.625 77.0156 22.625H76.7422C76.4557 22.625 75.1536 22.8984 72.8359 23.4453C72.6276 23.6016 72.2891 24.0964 71.8203 24.9297C71.3255 25.5807 71.0781 26.2057 71.0781 26.8047C71.2344 28.4714 71.4427 29.3047 71.7031 29.3047C72.0417 30.1901 72.4453 30.724 72.9141 30.9062C72.9922 31.0365 73.3047 31.1667 73.8516 31.2969C74.2161 31.6354 74.9844 32.0521 76.1562 32.5469C76.1562 32.651 76.2865 32.7161 76.5469 32.7422L77.0156 32.5859C77.224 32.638 77.3281 32.6901 77.3281 32.7422V32.7812L77.1719 32.9375V33.0547C77.5365 33.4974 77.9792 33.7188 78.5 33.7188V33.6797L77.7578 33.0547V33.0156C77.9922 33.0156 78.8255 33.4714 80.2578 34.3828C82.4193 36.388 83.5 37.6641 83.5 38.2109C83.8646 39.7995 84.0469 40.7891 84.0469 41.1797C83.8125 43.1589 83.5911 44.1484 83.3828 44.1484L82.4453 45.7891C80.6484 46.8828 79.5938 47.4297 79.2812 47.4297C76.2865 46.7786 74.2943 46.2578 73.3047 45.8672C71.2734 43.9661 70.2578 42.8464 70.2578 42.5078L70.1016 42.3906L70.0234 42.4297V42.625V44.8125C70.0234 44.9948 69.5547 45.0859 68.6172 45.0859H67.9141L67.3281 45.2812C67.1458 45.2812 66.9115 45.138 66.625 44.8516V44.8125L66.8203 44.5C67.0026 40.125 67.224 37.9375 67.4844 37.9375H67.5625L68.2656 38.0547C68.3958 38.0547 68.526 38.0156 68.6562 37.9375L69.1641 38.0547L69.4375 37.9766H69.5938C69.6979 38.0286 69.9323 38.4062 70.2969 39.1094C71.2865 40.3594 72.1719 41.5573 72.9531 42.7031C73.0573 42.7031 73.3828 43.0547 73.9297 43.7578L76.3516 44.8125H77.0547V44.9688H77.1328L77.3281 44.8516H77.4062C77.6146 45.0078 77.8099 45.0859 77.9922 45.0859H78.2266C78.9297 45.0599 79.2812 44.9688 79.2812 44.8125V44.7344H78.5L78.0312 44.6953C78.0573 44.5911 78.9818 44.3958 80.8047 44.1094C81.2214 44.1094 81.625 43.3802 82.0156 41.9219C82.0156 41.4531 82.1328 41.1146 82.3672 40.9062V40.75C81.9245 39.3698 81.4297 38.4714 80.8828 38.0547C80.5703 37.5078 79.3854 36.8698 77.3281 36.1406C75.974 35.6198 74.8802 35.0078 74.0469 34.3047C72.8229 33.9401 72.1198 33.5365 71.9375 33.0938C71.7812 32.7552 71.1823 32.1953 70.1406 31.4141C69.6719 29.9818 69.1641 28.875 68.6172 28.0938C68.3307 26.9479 68.1875 25.737 68.1875 24.4609C68.3958 23.6016 69.3333 22.4167 71 20.9062C71.9635 20.3854 73.487 20.125 75.5703 20.125ZM71 21.4922H71.4688C71.6771 21.4922 72.6406 21.2708 74.3594 20.8281C74.9844 20.724 75.2969 20.6198 75.2969 20.5156L75.1406 20.4766C72.3802 20.7109 71 21.0495 71 21.4922ZM81.3125 20.9844L81.2734 21.1406V21.2578C81.2734 21.4141 81.3776 21.4922 81.5859 21.4922H82.25V21.4531C81.9896 21.1406 81.6771 20.9844 81.3125 20.9844ZM72.1719 22.9375H72.25C72.5104 22.9375 73.1224 22.7031 74.0859 22.2344L75.1406 21.8438V21.8828L75.0234 22.1172H75.3359L75.5703 22.0391V21.8828L75.4922 21.7656V21.5312H75.4141C74.3724 21.8438 73.513 22.1693 72.8359 22.5078C72.3932 22.5859 72.1719 22.7292 72.1719 22.9375ZM78.7734 21.8438H78.1094C78.1094 21.8958 78.5 22.026 79.2812 22.2344H79.4766L79.5547 22.1953V22.1172C79.4766 21.9349 79.2161 21.8438 78.7734 21.8438ZM81.4688 21.8828L81.3906 22.0391V22.1172L81.4297 22.3516H81.5469L81.6641 22.2344V22.0391L81.5469 21.8828H81.4688ZM71.1953 22.4297V22.4688C71.1953 22.5469 71.2474 22.5859 71.3516 22.5859C71.4818 22.5339 71.5729 22.4427 71.625 22.3125V22.2344C71.3906 22.2344 71.2474 22.2995 71.1953 22.4297ZM80.0625 22.625L80.2578 22.8203H80.4531L80.5703 22.7031V22.5859C80.5703 22.5078 80.4661 22.4297 80.2578 22.3516C80.1276 22.4036 80.0625 22.4948 80.0625 22.625ZM82.0547 23.1719L82.1719 23.25V23.2891L82.0156 23.4844V23.6016C82.0156 23.6536 82.1198 23.7188 82.3281 23.7969C82.3802 24.0052 82.4583 24.1224 82.5625 24.1484H82.6797V23.9922L82.6406 23.875V23.7188H82.7578L82.9531 23.875H83.0312L83.0703 23.6406V23.5625C82.888 22.8333 82.7578 22.4688 82.6797 22.4688H82.4453C82.1849 22.5729 82.0547 22.8073 82.0547 23.1719ZM70.9609 24.1484L71.1953 24.3828H71.2734C71.5859 24.3307 71.8724 24.1615 72.1328 23.875L72.0156 23.7969H71.5859C71.2995 23.7969 71.0911 23.9141 70.9609 24.1484ZM69.2422 23.8359L69.125 23.9531V23.9922H69.3203V23.8359H69.2422ZM70.2969 25.6719V25.7109H70.375C70.8438 25.2682 71.0781 24.8776 71.0781 24.5391L70.9609 24.4219C70.6484 24.4219 70.4271 24.8385 70.2969 25.6719ZM83.0312 24.5391H82.8359V24.6172C82.9141 24.7734 82.9922 24.8516 83.0703 24.8516V24.6953L83.0312 24.5391ZM82.6406 24.8125L82.5234 24.9297H82.6406V24.8125ZM82.0156 25.0078L81.8594 25.125V25.1641L82.0156 25.3203H82.1719L82.3281 25.1641V25.125L82.1719 25.0078H82.0156ZM82.9141 25.3984L82.7578 25.5156V25.7891L82.7969 26.0625H82.9141L83.0312 25.3984H82.9141ZM82.0938 26.0625H82.0156V26.1406L82.0938 26.2578H82.25V26.1406L82.0938 26.0625ZM81.9766 27.1172V27.7422L82.0547 27.8203H82.0938C82.3021 27.8203 82.4193 27.7292 82.4453 27.5469C82.3151 27.2344 82.25 26.974 82.25 26.7656H82.1719C82.0417 26.8177 81.9766 26.9349 81.9766 27.1172ZM82.1719 28.3672L82.0547 28.4844L82.25 28.6016H82.3672L82.4062 28.4844L82.25 28.3672H82.1719ZM70.1406 30.0469V30.3203L70.2969 30.4766H70.6094V30.3203C70.4271 30.138 70.2708 30.0469 70.1406 30.0469ZM70.8828 31.1016H70.8438V31.2969C71.3906 31.6875 71.7552 31.8828 71.9375 31.8828H72.0938V31.7266C71.7292 31.4661 71.3255 31.2578 70.8828 31.1016ZM75.7656 32.4297H75.4141C75.4401 32.5339 75.5443 32.5859 75.7266 32.5859H75.8828V32.5469L75.7656 32.4297ZM76.1562 33.0156L76.0391 33.0938C76.1432 33.25 76.5729 33.4974 77.3281 33.8359V33.6797C76.9635 33.3411 76.5729 33.1198 76.1562 33.0156ZM77.0547 35.3594H76.8594V35.5547C77.1979 35.7109 77.6146 35.8021 78.1094 35.8281C78.1094 35.9323 78.2005 35.9844 78.3828 35.9844H78.6953V35.9453C78.6953 35.7109 78.1484 35.5156 77.0547 35.3594ZM79.6719 36.4141H79.5547V36.5312L79.6719 36.6484H79.75V36.5312L79.6719 36.4141ZM67.9141 40.4375H67.7578C67.6276 40.8281 67.5625 41.3229 67.5625 41.9219L67.6406 42.4297H67.6797C67.9141 42.4297 68.0312 42.3255 68.0312 42.1172C67.9531 41.5182 67.9141 40.9583 67.9141 40.4375ZM68.7344 41.5703C68.6042 42.013 68.4609 42.2995 68.3047 42.4297L68.4609 42.8594V43.875V44.1094C68.4609 44.2917 68.513 44.3828 68.6172 44.3828H68.8516L68.9688 44.2656V44.1094C68.9688 42.4167 68.8906 41.5703 68.7344 41.5703ZM70.8828 42.5469H70.8438V42.625C70.9479 43.0417 71.1432 43.25 71.4297 43.25V43.1719C71.2474 42.7552 71.0651 42.5469 70.8828 42.5469ZM67.6797 43.4062L67.7578 43.4844H67.7969C67.875 43.4844 67.9401 43.224 67.9922 42.7031L67.9141 42.625C67.8099 42.625 67.7318 42.8854 67.6797 43.4062ZM72.25 42.8984H72.1719V42.9375C72.3802 43.3281 72.5885 43.5234 72.7969 43.5234V43.4062C72.5885 43.1719 72.4062 43.0026 72.25 42.8984ZM82.3672 43.5625L82.1719 43.7578L82.3281 43.9141H82.5234L82.6797 43.7578V43.6797L82.5625 43.5625H82.3672ZM74.5547 44.4609V44.5C74.6068 44.6302 74.6979 44.6953 74.8281 44.6953C74.776 44.5391 74.6849 44.4609 74.5547 44.4609ZM72.6797 44.5391L72.4062 44.5V44.5391C72.6667 45.112 73.3177 45.5547 74.3594 45.8672C75.2188 46.1797 76.4297 46.5052 77.9922 46.8438C78.3047 47.0521 78.5781 47.1693 78.8125 47.1953H79.1641C79.8151 47.013 80.1406 46.7786 80.1406 46.4922L76.625 46.2188C74.5677 45.5677 73.2526 45.0078 72.6797 44.5391ZM79.5547 45.6719V45.75L79.6719 45.8281H79.8672C80.8047 45.8281 81.3255 45.6979 81.4297 45.4375L81.2734 45.3594H81.0391C80.7526 45.3594 80.2578 45.4635 79.5547 45.6719ZM78.3828 46.6484V46.4922H78.4609C78.6432 46.4922 78.7344 46.5443 78.7344 46.6484H78.6172H78.3828ZM102.859 18.4258C104.549 18.6549 105.395 18.9701 105.395 19.3711L107.457 25.5156L108.832 30.4141C109.462 33.3359 110.279 36.487 111.281 39.8672C111.339 39.8385 111.396 39.8242 111.453 39.8242V40.2539H111.41C111.439 40.3398 111.467 40.4401 111.496 40.5547C111.553 40.6693 111.582 40.7552 111.582 40.8125L112.398 42.5742L112.613 43.6484L112.527 44.1211C112.842 44.3503 113.201 44.4792 113.602 44.5078H114.461H114.504C114.819 44.5651 115.005 44.6367 115.062 44.7227L114.805 45.2383L114.848 45.9688C114.848 46.2839 114.704 46.5846 114.418 46.8711H114.246C114.017 46.6419 113.831 46.5273 113.688 46.5273H113.602C113.315 46.5273 113.158 46.6133 113.129 46.7852C113.129 46.8711 113.387 46.9284 113.902 46.957V47.0859C113.902 47.2005 113.73 47.2721 113.387 47.3008L112.828 47.1289H112.398L109.734 47.3867C109.133 47.3867 108.388 47.0286 107.5 46.3125L107.844 45.9688V45.7969L107.414 44.8945C107.414 44.5508 107.944 44.3789 109.004 44.3789L109.047 44.293V44.1211C109.047 42.832 108.46 41.3854 107.285 39.7812H107.242C104.263 40.0104 100.783 40.3112 96.8008 40.6836H95.8555C95.7409 40.7982 95.3542 41.944 94.6953 44.1211C94.8099 44.2357 94.9674 44.293 95.168 44.293H96.0273C97.0299 44.293 97.8893 44.694 98.6055 45.4961V45.5391C98.6055 45.7396 98.2331 46.1263 97.4883 46.6992C97.4883 47.0143 95.3112 47.1719 90.957 47.1719C90.2409 47.1432 89.8828 47.0573 89.8828 46.9141L90.0547 46.3555V46.3125C90.0547 46.1979 89.9401 45.9401 89.7109 45.5391C89.7109 45.3672 89.9688 45.1523 90.4844 44.8945L90.5273 44.7656V44.1211C90.5273 43.8633 90.6706 43.7344 90.957 43.7344L91.1289 43.9062L90.957 44.4219L91 44.4648H91.043C91.3867 43.9779 91.5586 43.6341 91.5586 43.4336V43.2617C91.5586 43.0898 91.5156 43.0039 91.4297 43.0039C91.7161 42.4883 91.9453 41.8008 92.1172 40.9414L94.3516 34.7539L95.168 32.7344C95.168 32.4766 95.4258 32.0469 95.9414 31.4453V31.3594L95.8125 30.9297C96.1276 30.7005 96.2852 30.5143 96.2852 30.3711L96.1562 30.2422C96.1562 29.9557 96.3281 29.6549 96.6719 29.3398L96.6289 29.0391L98.6055 23.2383C99.0924 22.3789 99.5365 21.3477 99.9375 20.1445C100.023 20.1445 100.238 19.8724 100.582 19.3281C101.757 18.7552 102.516 18.4544 102.859 18.4258ZM96.6719 37.5469V37.7617L96.8008 37.8477C100.553 37.2461 103.504 36.9453 105.652 36.9453H107.414L107.543 36.7734V36.7305C107.4 35.6992 107.142 35.1836 106.77 35.1836L104.062 27.0195C103.747 25.8451 103.432 24.8997 103.117 24.1836C102.974 23.8398 102.802 23.5964 102.602 23.4531C102.602 23.7396 102.587 24.0404 102.559 24.3555C100.553 28.3659 99.1068 31.0872 98.2188 32.5195C97.7604 33.4076 97.2448 35.0833 96.6719 37.5469ZM113 45.7969V45.8828H113.043C113.616 45.8828 113.902 45.7969 113.902 45.625L113.688 45.4531C113.458 45.4531 113.229 45.5677 113 45.7969ZM102.43 22.6367H102.473C102.73 22.6367 102.859 22.5221 102.859 22.293V22.1211H102.73C102.53 22.2357 102.43 22.4076 102.43 22.6367ZM103.719 19.0703H103.504V19.2852L103.633 19.4141H103.977L104.062 19.3281V19.2852C104.005 19.1419 103.891 19.0703 103.719 19.0703ZM104.234 37.6328L104.148 37.8047L104.234 37.8906H104.449C104.707 37.8906 104.85 37.8333 104.879 37.7188V37.6328H104.234ZM110.98 41.2422H109.734V41.4141L110.98 41.3281V41.2422ZM94.3945 41.0273H94.3086L94.2656 41.2852L94.3086 41.5H94.3945L94.5234 41.3711V41.0703L94.3945 41.0273ZM109.391 47.1289V47.2148H109.562C109.734 47.2148 109.835 47.1576 109.863 47.043L109.777 46.9141C109.577 46.9141 109.448 46.9857 109.391 47.1289ZM92.7188 41.3281L92.418 41.5859V41.7148C92.6471 41.7148 92.776 41.6146 92.8047 41.4141L92.7188 41.3281ZM106.898 36.2148L107.07 36L107.113 36.043V36.3867L106.984 36.5156L106.898 36.2148ZM97.5312 31.0156L97.4023 30.1562L97.3594 30.4141V30.543H97.4023C97.4883 31.0299 97.5312 31.2161 97.5312 31.1016V31.0156ZM111.754 43.6914H111.711V43.9922L111.84 44.1211H111.883V43.8203L111.754 43.6914ZM92.418 44.1211L92.2461 44.1641V44.293L92.375 44.4219H92.418L92.5039 44.293L92.418 44.1211ZM102.602 20.5312H102.559V20.6172L102.645 20.7461H102.73V20.6172L102.602 20.5312ZM101.012 38.4922H100.883V38.6211H101.012V38.4922ZM97.1016 31.4883H97.0586V31.6172H97.1016V31.4883ZM122.781 20.4766H123.25C124.552 20.4766 126.948 20.6458 130.438 20.9844L134.773 21.1016H134.891C136.87 21.1016 138.315 21.0104 139.227 20.8281C139.539 22 139.695 23.4062 139.695 25.0469V25.2422C139.695 25.9453 139.539 26.2969 139.227 26.2969L139.07 26.4531C139.07 26.5573 139.227 26.6745 139.539 26.8047H139.617V26.9609C139.461 27.1953 139.005 27.3385 138.25 27.3906C137.625 27.3906 137.312 27.1823 137.312 26.7656L137.273 25.8281L137.312 24.0312C137.312 23.7969 136.544 23.6797 135.008 23.6797H132.664L131.336 23.6406C131.102 23.6406 130.919 25.776 130.789 30.0469C130.633 33.5625 130.555 35.9453 130.555 37.1953V38.3672C130.555 38.7057 130.438 39.0573 130.203 39.4219V39.4609C130.411 39.4609 130.529 39.7344 130.555 40.2812L130.438 40.8672H130.359V40.8281V40.5938L130.281 43.6406C130.281 43.9531 131.57 44.2266 134.148 44.4609C134.643 44.6432 134.891 44.8906 134.891 45.2031C134.682 45.6719 134.578 46.2578 134.578 46.9609C134.5 46.9609 134.461 47.0911 134.461 47.3516L134.305 47.5078C131.518 47.3516 128.953 47.2734 126.609 47.2734H125.711C124.513 47.2734 123.589 47.3255 122.938 47.4297C122.885 47.3255 122.781 46.4661 122.625 44.8516H122.664L123.211 45.0859H123.25L123.406 44.9688V44.9297C123.354 44.7995 123.224 44.7344 123.016 44.7344L122.898 44.6172V44.5391C122.898 44.4609 123.471 44.3177 124.617 44.1094C124.617 44.0312 125.529 43.9792 127.352 43.9531C127.56 43.9531 127.703 43.1068 127.781 41.4141L127.977 38.9141C127.742 36.7526 127.625 35.4115 127.625 34.8906L127.195 27.1562V26.1406L127.273 24.6953L127.195 24.1875L127.352 23.875V23.6797C127.352 23.4453 126.323 23.3151 124.266 23.2891C122.781 23.3672 122.039 23.4714 122.039 23.6016C121.805 24.2005 121.57 25.099 121.336 26.2969L121.062 26.5312L120.984 26.4922H120.711C120.607 26.5964 120.49 26.6484 120.359 26.6484L119.266 26.7266C119.266 26.2318 119.266 25.724 119.266 25.2031C119.292 24.6562 119.305 24.2396 119.305 23.9531C119.331 23.6667 119.344 23.4583 119.344 23.3281L119.148 21.8438C119.148 21.5312 119.344 21.349 119.734 21.2969L120.203 20.8281H120.398L120.75 21.2969H120.828C121.271 20.75 121.922 20.4766 122.781 20.4766ZM131.531 21.9609L131.414 22.0781C131.414 22.2083 131.831 22.2995 132.664 22.3516C133.107 22.2995 133.328 22.2474 133.328 22.1953V22.1172C133.016 22.013 132.456 21.9609 131.648 21.9609H131.531ZM136.648 23.0547H136.258V23.0938C136.31 23.224 136.414 23.2891 136.57 23.2891H136.805V23.2109L136.648 23.0547ZM137.625 23.0547H137.43V23.2109H137.547L137.625 23.0938V23.0547ZM129.188 24.0312V24.0703L129.305 24.1875C129.565 24.1875 129.826 24.0182 130.086 23.6797V23.6016L129.891 23.5625C129.656 23.5625 129.422 23.7188 129.188 24.0312ZM120.906 23.6797L120.711 23.875V24.1875L120.828 24.3438H120.906L121.102 24.1484V23.875L120.945 23.6797H120.906ZM127.977 23.9922V24.1875C128.055 24.5781 128.133 24.7734 128.211 24.7734C128.341 24.7734 128.445 24.6302 128.523 24.3438V24.0703C128.523 23.9141 128.432 23.7839 128.25 23.6797C128.068 23.6797 127.977 23.7839 127.977 23.9922ZM138.25 23.875H138.172L138.055 24.3828L138.25 24.4609L138.367 24.3438V24.0312L138.25 23.875ZM129.578 25.2812H129.539L129.461 25.75V26.375H129.539L129.578 25.8281V25.2812ZM138.016 26.375L137.938 26.4531V26.6484H138.016L138.172 26.4922V26.4531L138.055 26.375H138.016ZM129.93 28.7969H129.852L129.773 30.2031V31.1406C129.773 31.7917 129.839 32.1172 129.969 32.1172H130.047L130.164 31.6094L129.93 28.7969ZM128.25 29.9688L128.172 30.0859L128.211 30.1641H128.25V29.9688ZM128.68 32.8984H128.562C128.406 33.5495 128.328 34.2526 128.328 35.0078V35.4766C128.328 36.7266 128.445 37.3516 128.68 37.3516C128.758 37.3516 128.81 37.1432 128.836 36.7266L128.602 34.8906L128.797 34.0312L128.68 32.8984ZM128.992 38.3672H128.836V39.0312L129.188 39.6172V39.4219C129.188 38.7188 129.122 38.3672 128.992 38.3672ZM125.32 44.5391L125.125 44.7344V44.9297C125.125 44.9818 125.177 45.0078 125.281 45.0078L126.102 44.9297V44.8125C125.997 44.6302 125.802 44.5391 125.516 44.5391H125.32ZM124.383 44.6953H124.266L124.188 44.8125L124.305 44.9297H124.461L124.539 44.8125L124.383 44.6953ZM132.664 45.2422C133.055 45.3464 133.51 45.3984 134.031 45.3984L134.109 45.3203V45.2031L133.719 45.0859H132.938C132.755 45.112 132.664 45.1641 132.664 45.2422ZM131.922 45.75L131.766 45.9062C131.844 46.0885 131.974 46.1797 132.156 46.1797H132.391C132.547 46.1797 132.651 46.1406 132.703 46.0625V45.9844C132.703 45.8802 132.521 45.8021 132.156 45.75H131.922ZM128.172 45.8281L127.82 45.9062V46.0625L128.172 46.1016H128.719C128.875 46.1016 128.966 46.0495 128.992 45.9453C128.862 45.8672 128.667 45.8281 128.406 45.8281H128.172ZM125.438 45.9844L125.242 46.0625V46.1797L125.867 46.2969L126.375 46.1797V46.1406L126.219 45.9844H125.438ZM123.68 46.7266V46.8047L123.797 46.8828H123.875C124.057 46.7786 124.148 46.5964 124.148 46.3359V46.2969L124.031 46.1797H123.992C123.784 46.3099 123.68 46.4922 123.68 46.7266ZM133.992 46.2969L133.836 46.4531V46.5703L133.992 46.6484L134.109 46.4922V46.375L133.992 46.2969Z" fill="#54BFC9"/>
<g clip-path="url(#clip0_59_17)">
<path fill-rule="evenodd" clip-rule="evenodd" d="M39.8042 64.8504C35.407 64.3855 31.1914 62.8477 27.5276 60.3722C23.8638 57.8968 20.864 54.5594 18.7919 50.6534C16.7197 46.7473 15.6386 42.3921 15.6434 37.9705C15.6483 33.5488 16.739 29.196 18.8197 25.2945C19.194 24.5924 19.8318 24.0677 20.593 23.8359C21.3541 23.6041 22.1762 23.6841 22.8783 24.0584C23.5804 24.4327 24.1051 25.0705 24.3369 25.8316C24.5687 26.5928 24.4887 27.4148 24.1144 28.1169C22.4953 31.1514 21.6462 34.5372 21.6419 37.9766C21.6376 41.416 22.4782 44.8039 24.0897 47.8424C25.7013 50.8809 28.0345 53.4771 30.8843 55.4028C33.7341 57.3285 37.0133 58.5248 40.4336 58.8865C40.8344 58.9162 41.2251 59.0261 41.5825 59.2096C41.94 59.3932 42.2569 59.6468 42.5145 59.9552C42.7721 60.2636 42.9651 60.6206 43.0821 61.0051C43.199 61.3895 43.2376 61.7935 43.1954 62.1931C43.1532 62.5928 43.0312 62.9798 42.8365 63.3314C42.6419 63.683 42.3786 63.9918 42.0623 64.2397C41.746 64.4875 41.3831 64.6693 40.9952 64.7742C40.6073 64.8791 40.2023 64.905 39.8042 64.8504ZM48.2524 61.5211C47.974 60.7761 48.0028 59.9511 48.3325 59.2274C48.6622 58.5036 49.2658 57.9404 50.0106 57.6615C54.805 55.875 58.7779 52.3927 61.1774 47.8739C61.5517 47.1718 62.1895 46.6471 62.9507 46.4153C63.7118 46.1834 64.5338 46.2635 65.236 46.6377C65.9381 47.012 66.4628 47.6499 66.6946 48.411C66.9264 49.1721 66.8464 49.9942 66.4721 50.6963C63.3852 56.5049 58.2777 60.9817 52.1146 63.2808C51.7455 63.419 51.3527 63.4831 50.9588 63.4695C50.5649 63.4558 50.1775 63.3647 49.8189 63.2013C49.4602 63.0379 49.1372 62.8054 48.8684 62.5171C48.5996 62.2288 48.3903 61.8904 48.2524 61.5211Z" fill="#C98656"/>
<path fill-rule="evenodd" clip-rule="evenodd" d="M55.8827 45.0515C54.0113 48.5621 50.822 51.1855 47.0163 52.3447C43.2107 53.5038 39.1005 53.1036 35.5899 51.2322C32.0792 49.3608 29.4558 46.1715 28.2967 42.3659C27.1376 38.5602 27.5378 34.45 29.4091 30.9394C29.7834 30.2373 30.4213 29.7126 31.1824 29.4808C31.9435 29.249 32.7656 29.329 33.4677 29.7033C34.1698 30.0775 34.6945 30.7154 34.9263 31.4765C35.1581 32.2377 35.0781 33.0597 34.7038 33.7618C33.581 35.8682 33.3409 38.3343 34.0364 40.6177C34.7319 42.9011 36.3059 44.8147 38.4123 45.9375C40.5186 47.0603 42.9848 47.3004 45.2682 46.605C47.5515 45.9095 49.4651 44.3355 50.588 42.2291C52.9546 37.7895 56.1244 34.0432 59.8242 31.0758C60.4452 30.5782 61.2384 30.3477 62.0293 30.4349C62.8202 30.5221 63.5441 30.9199 64.0417 31.5409C64.5393 32.1618 64.7698 32.955 64.6826 33.746C64.5954 34.5369 64.1976 35.2608 63.5766 35.7584C60.407 38.3009 57.789 41.4631 55.8827 45.0515ZM35.105 27.1356C34.7905 26.898 34.5259 26.6008 34.3263 26.2609C34.1267 25.921 33.996 25.5451 33.9418 25.1547C33.8875 24.7643 33.9108 24.367 34.0101 23.9856C34.1095 23.6041 34.283 23.246 34.5209 22.9317C36.027 20.9379 37.6571 19.0409 39.4014 17.2518C39.6737 16.9589 40.0018 16.7234 40.3665 16.5591C40.7311 16.3949 41.1249 16.3052 41.5247 16.2953C41.9245 16.2855 42.3223 16.3557 42.6946 16.5018C43.0669 16.6479 43.4062 16.8669 43.6926 17.1461C43.979 17.4252 44.2067 17.7588 44.3623 18.1273C44.5179 18.4957 44.5982 18.8915 44.5986 19.2914C44.599 19.6914 44.5195 20.0874 44.3646 20.4561C44.2097 20.8248 43.9827 21.1589 43.6969 21.4386C42.1427 23.034 40.6755 24.7405 39.3063 26.5501C38.8263 27.1839 38.1144 27.6013 37.327 27.7106C36.5395 27.8199 35.7408 27.6122 35.1064 27.133L35.105 27.1356Z" fill="#C98656" fill-opacity="0.9"/>
<path fill-rule="evenodd" clip-rule="evenodd" d="M41.2347 40.6428C40.5326 40.2685 40.0079 39.6306 39.7761 38.8695C39.5442 38.1084 39.6243 37.2863 39.9985 36.5842C43.154 30.6647 47.3805 25.6697 52.3099 21.7157C52.6174 21.4693 52.9703 21.2859 53.3487 21.176C53.727 21.066 54.1233 21.0316 54.515 21.0748C54.9066 21.118 55.2859 21.2379 55.6312 21.4277C55.9765 21.6174 56.281 21.8734 56.5274 22.1808C56.7738 22.4883 56.9572 22.8413 57.0672 23.2196C57.1771 23.5979 57.2115 23.9942 57.1683 24.3859C57.1251 24.7775 57.0052 25.1568 56.8155 25.5021C56.6257 25.8474 56.3698 26.1519 56.0623 26.3983C51.6261 29.9577 47.9618 34.3839 45.2933 39.4066C44.919 40.1087 44.2811 40.6334 43.52 40.8652C42.7589 41.0971 41.9368 41.017 41.2347 40.6428Z" fill="#C98656" fill-opacity="0.7"/>
</g>
<defs>
<clipPath id="clip0_59_17">
<rect width="60" height="60" fill="white" transform="translate(53.5961 81.2284) rotate(-151.94)"/>
</clipPath>
</defs>
</svg>
